C:\Users\r0593348\3dpredictsim\Results\batch_windlass\Pog_s1_tmt_bCst_d05_k500_WL40_ig24_pas_GRF.mot
nRows=27
nColumns=19

name C:\Users\r0593348\3dpredictsim\Results\batch_windlass\Pog_s1_tmt_bCst_d05_k500_WL40_ig24_pas_GRF.mot
datacolumns 19
datarows 27
range 0.0000000000 0.2840129419
endheader
time 	ground_force_vx	ground_force_vy	ground_force_vz	ground_force_px	ground_force_py	ground_force_pz	1_ground_force_vx	1_ground_force_vy	1_ground_force_vz	1_ground_force_px	1_ground_force_py	1_ground_force_pz	ground_torque_x	ground_torque_y	ground_torque_z	1_ground_torque_x	1_ground_torque_y	1_ground_torque_z
        0.0000000000	      -74.5557183939	       53.9108985071	       19.6753088002	        0.1398227841	        0.0000000000	        0.0451454091	       77.6576030826	      417.3543922584	       -2.4762305984	       -0.3247831868	        0.0000000000	       -0.0315094376	        0.0000000000	        0.0000000000	        0.0000000000	        0.0000000000	        0.0000000000	        0.0000000000	
        0.0109235747	     -124.3813395674	      112.5596788791	       44.0381886261	        0.1513813315	        0.0000000000	        0.0428842170	       52.0649879447	      321.2137494329	       -9.6596908021	       -0.3180706787	        0.0000000000	       -0.0286272466	        0.0000000000	        0.0000000000	        0.0000000000	        0.0000000000	        0.0000000000	        0.0000000000	
        0.0218471494	     -111.7897331971	      231.8041954688	       67.3620714415	        0.1610336327	        0.0000000000	        0.0421044444	       26.5329781785	      227.0728399134	      -16.7695486237	       -0.3079980152	        0.0000000000	       -0.0236603760	        0.0000000000	        0.0000000000	        0.0000000000	        0.0000000000	        0.0000000000	        0.0000000000	
        0.0327707241	      -68.4158454987	      488.9444707540	        9.7631583732	        0.1732378973	        0.0000000000	        0.0434404124	        9.8540395487	      164.5994317921	      -17.9131013782	       -0.2981322151	        0.0000000000	       -0.0177604276	        0.0000000000	        0.0000000000	        0.0000000000	        0.0000000000	        0.0000000000	        0.0000000000	
        0.0436942988	      -81.0964198978	      730.5282953664	      -11.1236022735	        0.1805449660	        0.0000000000	        0.0450486937	        0.7849433638	      132.3347692498	      -14.2497041882	       -0.2986133603	        0.0000000000	       -0.0177623439	        0.0000000000	        0.0000000000	        0.0000000000	        0.0000000000	        0.0000000000	        0.0000000000	
        0.0546178734	     -102.4583181433	      862.6188739788	      -18.0370313023	        0.1860686451	        0.0000000000	        0.0460148370	       -5.3893759445	       89.5817482795	      -10.2853078799	       -0.2985414580	        0.0000000000	       -0.0175575264	        0.0000000000	        0.0000000000	        0.0000000000	        0.0000000000	        0.0000000000	        0.0000000000	
        0.0655414481	     -118.9333293390	      920.7406219339	      -19.5594036971	        0.1917095019	        0.0000000000	        0.0463045048	      -14.2828347024	       38.1440138851	       -5.2869272233	       -0.2998782296	        0.0000000000	       -0.0174053757	        0.0000000000	        0.0000000000	        0.0000000000	        0.0000000000	        0.0000000000	        0.0000000000	
        0.0764650228	     -119.0673066792	      937.2068493605	      -19.0419184747	        0.1979375093	        0.0000000000	        0.0461014609	        0.1495963281	       -0.1474897630	       -0.0026781603	        0.0000000000	        0.0000000000	        0.0000000000	        0.0000000000	        0.0000000000	        0.0000000000	        0.0000000000	        0.0000000000	        0.0000000000	
        0.0873885975	     -109.7417139893	      901.7873576268	      -17.7605673331	        0.2032827168	        0.0000000000	        0.0457306151	        0.0004709182	       -0.0003880547	       -0.0000291980	        0.0000000000	        0.0000000000	        0.0000000000	        0.0000000000	        0.0000000000	        0.0000000000	        0.0000000000	        0.0000000000	        0.0000000000	
        0.0983121722	      -93.8528420856	      840.1216202673	      -17.5961387160	        0.2072774199	        0.0000000000	        0.0454024446	        0.0001518205	       -0.0001099847	       -0.0000107345	        0.0000000000	        0.0000000000	        0.0000000000	        0.0000000000	        0.0000000000	        0.0000000000	        0.0000000000	        0.0000000000	        0.0000000000	
        0.1092357469	      -79.0121694423	      778.5808445093	      -17.5506584263	        0.2107167855	        0.0000000000	        0.0451999425	        0.0005066602	       -0.0003317990	       -0.0000379490	        0.0000000000	        0.0000000000	        0.0000000000	        0.0000000000	        0.0000000000	        0.0000000000	        0.0000000000	        0.0000000000	        0.0000000000	
        0.1201593216	      -66.3316154603	      727.8334455487	      -17.8276830643	        0.2139632526	        0.0000000000	        0.0450952006	        0.0078807692	       -0.0047560983	       -0.0006166422	        0.0000000000	        0.0000000000	        0.0000000000	        0.0000000000	        0.0000000000	        0.0000000000	        0.0000000000	        0.0000000000	        0.0000000000	
        0.1310828963	      -55.1049617708	      687.4995745527	      -18.4120968421	        0.2172366413	        0.0000000000	        0.0450609672	       -0.0384377682	        0.0216799344	        0.0031221281	        0.0000000000	        0.0000000000	        0.0000000000	        0.0000000000	        0.0000000000	        0.0000000000	        0.0000000000	        0.0000000000	        0.0000000000	
        0.1420064710	      -45.3999326208	      655.1826987644	      -19.0558477376	        0.2207040954	        0.0000000000	        0.0450725420	       -0.0369021484	        0.0196597025	        0.0031060777	        0.0000000000	        0.0000000000	        0.0000000000	        0.0000000000	        0.0000000000	        0.0000000000	        0.0000000000	        0.0000000000	        0.0000000000	
        0.1529300456	      -36.9970280317	      629.7887820070	      -19.8361394271	        0.2245924906	        0.0000000000	        0.0450971829	       -0.0224548695	        0.0113828983	        0.0019529038	        0.0000000000	        0.0000000000	        0.0000000000	        0.0000000000	        0.0000000000	        0.0000000000	        0.0000000000	        0.0000000000	        0.0000000000	
        0.1638536203	      -30.4717856713	      610.4425511865	      -20.6867587114	        0.2290245843	        0.0000000000	        0.0450985351	       -0.0156956618	        0.0076172053	        0.0014083936	        0.0000000000	        0.0000000000	        0.0000000000	        0.0000000000	        0.0000000000	        0.0000000000	        0.0000000000	        0.0000000000	        0.0000000000	
        0.1747771950	      -25.7675883997	      596.5655234451	      -21.2370415391	        0.2338483932	        0.0000000000	        0.0450572264	       -0.0139895257	        0.0065320668	        0.0012905100	        0.0000000000	        0.0000000000	        0.0000000000	        0.0000000000	        0.0000000000	        0.0000000000	        0.0000000000	        0.0000000000	        0.0000000000	
        0.1857007697	      -22.2497493435	      587.3579933034	      -21.4294066422	        0.2389389035	        0.0000000000	        0.0449641820	       -0.0161369588	        0.0072781026	        0.0015191776	        0.0000000000	        0.0000000000	        0.0000000000	        0.0000000000	        0.0000000000	        0.0000000000	        0.0000000000	        0.0000000000	        0.0000000000	
        0.1966243444	      -20.0238620056	      582.0092784188	      -21.4096695442	        0.2442371007	        0.0000000000	        0.0448126818	       -0.0232762559	        0.0101770202	        0.0022184916	        0.0000000000	        0.0000000000	        0.0000000000	        0.0000000000	        0.0000000000	        0.0000000000	        0.0000000000	        0.0000000000	        0.0000000000	
        0.2075479191	      -18.4203410464	      579.3508926637	      -20.9957545140	        0.2495815860	        0.0000000000	        0.0446148631	       -0.0395918514	        0.0168421302	        0.0037933814	        0.0000000000	        0.0000000000	        0.0000000000	        0.0000000000	        0.0000000000	        0.0000000000	        0.0000000000	        0.0000000000	        0.0000000000	
        0.2184714938	      -16.5490471596	      578.0805251457	      -20.3442609131	        0.2549508385	        0.0000000000	        0.0443796763	       -0.0740434997	        0.0307548546	        0.0070716645	        0.0000000000	        0.0000000000	        0.0000000000	        0.0000000000	        0.0000000000	        0.0000000000	        0.0000000000	        0.0000000000	        0.0000000000	
        0.2293950685	      -14.5612032881	      577.2446838134	      -19.7447951218	        0.2603144162	        0.0000000000	        0.0441094326	       -0.1419237187	        0.0577586841	        0.0134084964	        0.0000000000	        0.0000000000	        0.0000000000	        0.0000000000	        0.0000000000	        0.0000000000	        0.0000000000	        0.0000000000	        0.0000000000	
        0.2403186432	      -12.3917879279	      575.8820584261	      -19.4586682543	        0.2655923711	        0.0000000000	        0.0438145936	       -0.2625384713	        0.1050446179	        0.0244397962	        0.0000000000	        0.0000000000	        0.0000000000	        0.0000000000	        0.0000000000	        0.0000000000	        0.0000000000	        0.0000000000	        0.0000000000	
        0.2512422178	       -9.9579970038	      573.5192556654	      -19.2144229395	        0.2708008629	        0.0000000000	        0.0435032963	       -0.4473445478	        0.1765719991	        0.0408990529	        0.0000000000	        0.0000000000	        0.0000000000	        0.0000000000	        0.0000000000	        0.0000000000	        0.0000000000	        0.0000000000	        0.0000000000	
        0.2621657925	       -7.3984739139	      570.0025958921	      -18.9786762629	        0.2759469883	        0.0000000000	        0.0431763747	       -0.6841937176	        0.2672729487	        0.0612223160	        0.0000000000	        0.0000000000	        0.0000000000	        0.0000000000	        0.0000000000	        0.0000000000	        0.0000000000	        0.0000000000	        0.0000000000	
        0.2730893672	       -4.6693923933	      565.3791917034	      -18.6049567593	        0.2810513320	        0.0000000000	        0.0428347497	       -0.9334786186	        0.3619036756	        0.0813764133	        0.0000000000	        0.0000000000	        0.0000000000	        0.0000000000	        0.0000000000	        0.0000000000	        0.0000000000	        0.0000000000	        0.0000000000	
        0.2840129419	       -1.4220828761	      559.9550880554	      -17.7903387648	        0.2861771853	        0.0000000000	        0.0424760884	       -1.1477374022	        0.4425634235	        0.0966705987	        0.0000000000	        0.0000000000	        0.0000000000	        0.0000000000	        0.0000000000	        0.0000000000	        0.0000000000	        0.0000000000	        0.0000000000	
